<svg xmlns="http://www.w3.org/2000/svg" viewBox="0 0 30 30">
    <path d="M21.517,17.597C21.25,17.845,20.894,18,20.5,18c-0.828,0-1.5-0.672-1.5-1.5s0.672-1.5,1.5-1.5 c0.613,0,1.139,0.369,1.371,0.896C21.942,15.586,22,15.254,22,14.85c0-1.016-0.295-1.873-0.622-2.528 C22.144,11.625,24,9.598,24,6.313C24,4.009,22.62,2,21,2c-1.198,0-2.105,1.165-1.2,3.312C21,8.35,18.25,10,18.25,10S17.075,9,15,9 s-3.25,1-3.25,1S9,8.35,10.2,5.312C11.105,3.165,10.198,2,9,2C7.38,2,6,4.009,6,6.313c0,3.285,1.856,5.312,2.622,6.009 C8.295,12.977,8,13.834,8,14.85c0,0.404,0.058,0.735,0.129,1.046C8.361,15.369,8.887,15,9.5,15c0.828,0,1.5,0.672,1.5,1.5 S10.328,18,9.5,18c-0.394,0-0.75-0.155-1.017-0.403C8.486,17.649,8.5,17.695,8.5,17.75c0,1-1,2.2-1,4.3c0,3.05,4,3.941,5,3.941 C13.13,26.566,14,27,15,27s1.87-0.434,2.5-1.009c1,0,5-0.891,5-3.941c0-2.1-1-3.3-1-4.3C21.5,17.695,21.514,17.649,21.517,17.597z M17.27,20.639c-0.068,0.082-0.537,0.614-1.27,0.916v1.459c0,0.552-0.448,1-1,1s-1-0.448-1-1v-1.459 c-0.732-0.301-1.202-0.834-1.27-0.916c-0.353-0.425-0.294-1.056,0.131-1.408c0.423-0.35,1.049-0.295,1.402,0.124 c0.094,0.107,0.426,0.408,0.736,0.408c0.324,0,0.679-0.339,0.73-0.401c0.354-0.425,0.983-0.483,1.408-0.131 C17.563,19.583,17.622,20.213,17.27,20.639z"></path>
</svg>
